# xmcd
#
# Track frame offsets:
#  150
#  30517
#  54962
#  75635
#  90857
#  106202
#  129377
#  147285
#  169490
#  187757
#  222707
#  242235
#
# Disc length: 3470 seconds
#
# Revision: 5
# Processed by: cddbd v1.5.1PL2 Copyright (c) Steve Scherf et al.
# Submitted via: Collectorz.com_Music_Collector 6.9
#
DISCID=9a0d8c0c
DTITLE=Various Artist - Your Guide To The North Sea Jazz Festival 2000
DYEAR=2000
DGENRE=Jazz
TTITLE0=Fleurine - Close Enough For You
TTITLE1=Roy Hargrove - Natural Wonders
TTITLE2=Nicholas Payton - Pleasant Dreams
TTITLE3=Diana Krall - Devil May Care
TTITLE4=Mike Del Ferro - La Donna è Mobile
TTITLE5=Clarence Brown - Strange Things Happen
TTITLE6=George Benson - Hipping The Hop
TTITLE7=Claudia Acuna - Gracias A La Vida
TTITLE8=Regina Carter - Mandingo Street
TTITLE9=Russel Malone - Soulful Kisses
TTITLE10=Al Jarreau - Just To Be Loved.
TTITLE11=Michiel Borstlap - Wisdom
EXTD=
EXTT0=
EXTT1=
EXTT2=
EXTT3=
EXTT4=
EXTT5=
EXTT6=
EXTT7=
EXTT8=
EXTT9=
EXTT10=
EXTT11=
PLAYORDER=
